<svg width="22" height="23" viewBox="0 0 22 23" fill="none" xmlns="http://www.w3.org/2000/svg">
<path d="M11 2.10938C9.09636 2.10937 7.23546 2.67387 5.65264 3.73148C4.06982 4.78909 2.83616 6.29231 2.10766 8.05105C1.37917 9.80979 1.18856 11.7451 1.55995 13.6121C1.93133 15.4792 2.84802 17.1942 4.1941 18.5403C5.54018 19.8864 7.25519 20.8031 9.12226 21.1744C10.9893 21.5458 12.9246 21.3552 14.6833 20.6267C16.4421 19.8982 17.9453 18.6646 19.0029 17.0817C20.0605 15.4989 20.625 13.638 20.625 11.7344C20.625 9.18167 19.6109 6.73351 17.8059 4.92847C16.0009 3.12343 13.5527 2.10938 11 2.10938ZM11 6.23438C11.204 6.23438 11.4033 6.29486 11.5729 6.40817C11.7425 6.52149 11.8747 6.68255 11.9528 6.87098C12.0308 7.05942 12.0512 7.26677 12.0114 7.46681C11.9716 7.66686 11.8734 7.85061 11.7292 7.99483C11.585 8.13905 11.4012 8.23727 11.2012 8.27706C11.0011 8.31685 10.7938 8.29643 10.6054 8.21838C10.4169 8.14032 10.2559 8.00814 10.1426 7.83856C10.0292 7.66897 9.96875 7.46959 9.96875 7.26562C9.96875 6.99212 10.0774 6.72982 10.2708 6.53642C10.4642 6.34302 10.7265 6.23438 11 6.23438ZM13.75 17.3203H8.25V15.7734H10.2266V11.8203H8.9375V10.2734H11.7734V15.7734H13.75V17.3203Z" fill="#686868"/>
</svg>
